<?xml version="1.0" encoding="UTF-8"?>
<svg id="Layer_1" data-name="Layer 1" xmlns="http://www.w3.org/2000/svg" version="1.1" viewBox="0 0 2000 2000">
  <defs>
    <style>
      .cls-1 {
        fill: #fcd79a;
        stroke-width: 0px;
      }
    </style>
  </defs>
  <path class="cls-1" d="M397,1198.9c.3,0,.4.4.4,1.2s-.1,1.2-.4,1.2c-4.3,0-7.7,0-10.2-.2l-14.2-.2-13.4.2c-2.3,0-5.4.2-9.4.2s-.6-.4-.6-1.2.2-1.2.6-1.2c5.9,0,9.8-.7,11.8-2,2.1-1.3,3.2-4.1,3.2-8.4l-.2-3.4-3.8-88-44.2,102.8c-.3.5-.8.8-1.6.8s-1.3-.3-1.6-.8l-49.8-102-1.6,80.4c-.1,7.1,1.1,12.3,3.8,15.6s7,5,13,5,.6.4.6,1.2-.2,1.2-.6,1.2c-3.6,0-6.4,0-8.4-.2l-11-.2-11,.2c-1.9,0-4.6.2-8.2.2s-.4-.4-.4-1.2,0-1.2.4-1.2c11.1,0,16.7-6.9,16.8-20.6l1.8-89.6c-4.3-6.7-10-10-17.2-10s-.4-.4-.4-1.2.1-1.2.4-1.2l8,.2c1.6.1,3.7.2,6.2.2s5.3,0,7.2-.2c1.9-.1,3.3-.2,4.4-.2,1.7,0,3.1.6,4.2,1.8,1.1,1.2,2.7,4.1,5,8.6l44.4,90.2,41.8-95.6c1.3-3.3,3.3-5,6-5s1.9,0,3.2.2c1.3.1,3.1.2,5.2.2l10.2-.2c1.6-.1,3.9-.2,7-.2s.6.4.6,1.2-.2,1.2-.6,1.2c-6.5,0-11.3,1.1-14.2,3.2-2.8,2.1-4.1,5.9-4,11.2l4.4,92c.3,4.1.8,7.1,1.6,9s2.3,3.1,4.4,3.8c2.1.7,5.6,1,10.4,1ZM588.6,1198.9c.5,0,.8.4.8,1.2s-.3,1.2-.8,1.2c-2.5,0-6.6,0-12.2-.4-5.3-.3-9.3-.4-11.8-.4s-6.9,0-11.4.4c-4.5.3-7.9.4-10.2.4s-.8-.4-.8-1.2.3-1.2.8-1.2c4.5,0,7.8-.4,9.8-1.2,2-.9,3-2.5,3-4.8s-1-5.4-3-9.4l-22.4-46.4h-36.8l-16.4,37.8c-1.9,4.4-2.8,8.1-2.8,11,0,8.7,6.5,13,19.4,13s1,.4,1,1.2-.3,1.2-1,1.2c-2.4,0-5.9,0-10.4-.4-5.1-.3-9.5-.4-13.2-.4s-7.6,0-12.4.4c-4.3.3-7.7.4-10.4.4s-.8-.4-.8-1.2.3-1.2.8-1.2c3.7,0,6.9-.7,9.4-2.2,2.7-1.5,5.2-4,7.6-7.6,2.4-3.6,5.1-8.9,8.2-16l42.6-98.2c.1-.4.6-.6,1.4-.6.8-.1,1.3,0,1.4.6l48.2,99c4.5,9.7,8.4,16.3,11.6,19.8s6.8,5.2,10.8,5.2h0ZM495.4,1132.5h32.8l-17.2-36-15.6,36h0ZM673.6,1184.3c0,3.7.3,6.5,1,8.2.8,1.6,2.2,2.7,4.2,3.4,2,.5,5.1.8,9.4.8h17c8.4,0,15.3-2.5,20.8-7.4,5.6-5.1,9.3-11.9,11.2-20.4,0-.4.3-.5,1-.4.8,0,1.2.2,1.2.6-1.2,11.7-1.8,21.5-1.8,29.2s-.3,1.9-.8,2.4c-.4.4-1.1.6-2.2.6h-93.2c-.3,0-.4-.4-.4-1.2s.1-1.2.4-1.2c4.8,0,8.3-.3,10.4-1,2.3-.7,3.8-1.9,4.6-3.8.8-2,1.2-5,1.2-9v-92.6c0-4-.4-6.9-1.2-8.8-.8-1.9-2.3-3.1-4.6-3.8-2.1-.8-5.6-1.2-10.4-1.2s-.4-.4-.4-1.2.1-1.2.4-1.2l10,.2c5.9.3,10.6.4,14.2.4s8.3-.1,14.2-.4l10-.2c.3,0,.4.4.4,1.2s-.1,1.2-.4,1.2c-4.7,0-8.1.4-10.4,1.2-2.3.7-3.8,2-4.6,4-.8,1.9-1.2,4.8-1.2,8.8v91.6h0ZM829.8,1185.1c0,4,.4,7,1.2,9,.8,1.9,2.3,3.1,4.4,3.8,2.3.7,5.8,1,10.6,1s.4.4.4,1.2,0,1.2-.4,1.2c-4.3,0-7.6,0-10-.2l-14.4-.2-14,.2c-2.5,0-6,.2-10.4.2s-.4-.4-.4-1.2,0-1.2.4-1.2c4.8,0,8.3-.3,10.6-1s3.8-1.9,4.6-3.8c.8-2,1.2-5,1.2-9v-92.6c0-4-.4-6.9-1.2-8.8s-2.3-3.1-4.6-3.8c-2.3-.8-5.8-1.2-10.6-1.2s-.4-.4-.4-1.2,0-1.2.4-1.2l10.4.2c5.9.3,10.5.4,14,.4s8.7-.1,14.6-.4l9.8-.2c.3,0,.4.4.4,1.2s0,1.2-.4,1.2c-4.7,0-8.1.4-10.4,1.2-2.3.8-3.8,2.2-4.6,4.2-.8,1.9-1.2,4.8-1.2,8.8v92.2h0ZM1034.1,1184.3c0,4.3.5,7.4,1.6,9.4,1.1,1.9,3.1,3.2,6,4,3.1.8,7.9,1.2,14.6,1.2s.6.4.6,1.2-.2,1.2-.6,1.2c-5.5,0-9.7,0-12.8-.2l-17.4-.2-13.8.2c-2.5,0-6,.2-10.4.2s-.4-.4-.4-1.2,0-1.2.4-1.2c4.8,0,8.3-.3,10.4-1,2.3-.7,3.8-1.9,4.6-3.8.8-2,1.2-5,1.2-9v-92.6c0-4-.4-6.9-1.2-8.8s-2.3-3.1-4.6-3.8c-2.1-.8-5.6-1.2-10.4-1.2s-.4-.4-.4-1.2,0-1.2.4-1.2l10.4.2c5.6.3,10.1.4,13.6.4s7-.2,11.4-.6c1.6,0,4.1,0,7.4-.2,3.5-.3,6.5-.4,9-.4,12.5,0,22.6,2.8,30.2,8.4,7.6,5.5,11.4,13.8,11.4,25s-2.2,16-6.6,22c-4.3,6-9.8,10.5-16.6,13.4-6.7,2.9-13.6,4.4-20.8,4.4s-7.1-.3-9.6-1c-.4,0-.6-.3-.6-1s0-.8.2-1.2c.3-.4.5-.5.8-.4,2.1.5,4.5.8,7.2.8,7.9,0,14.5-2.9,20-8.6,5.5-5.7,8.2-14,8.2-24.8s-2.7-18.7-8-24.6c-5.3-6-12.4-9-21.2-9s-7,.3-9,1c-1.9.5-3.2,1.8-4,3.8-.8,1.9-1.2,4.9-1.2,9v91.4h0ZM1287.4,1198.9c.3,0,.4.4.4,1.2s0,1.2-.4,1.2h-29c-3.2,0-9.3-5.7-18.2-17-8.8-11.5-19.3-27.1-31.6-47-3.1.7-6,1-8.8,1s-5.8,0-9.8-.4v47.2c0,4,.4,7,1.2,9,.8,1.9,2.3,3.1,4.4,3.8,2.3.7,5.8,1,10.6,1s.6.4.6,1.2-.2,1.2-.6,1.2c-4.1,0-7.4,0-9.8-.2l-14.4-.2-14,.2c-2.5,0-5.9.2-10.2.2s-.6-.4-.6-1.2.2-1.2.6-1.2c4.8,0,8.3-.3,10.6-1s3.8-1.9,4.6-3.8c.8-2,1.2-5,1.2-9v-92.6c0-4-.4-6.9-1.2-8.8-.8-1.9-2.3-3.1-4.6-3.8-2.1-.8-5.6-1.2-10.4-1.2s-.4-.4-.4-1.2,0-1.2.4-1.2l10,.2c5.9.3,10.5.4,14,.4s4.7,0,6.8-.2c2.1-.2,4-.3,5.6-.4,4.4-.4,8.5-.6,12.4-.6,11.3,0,20.1,2.3,26.2,6.8,6.1,4.4,9.2,10.5,9.2,18.4s-1.9,12.2-5.6,17.8c-3.7,5.6-8.6,10.1-14.6,13.6,11.2,16.9,20.5,30.2,28,39.8,7.6,9.5,14.3,16.3,20.2,20.6,5.9,4.1,11.6,6.2,17.2,6.2ZM1190,1132.7c5.1.5,9,.8,11.8.8,8.5,0,14.6-1.9,18.2-5.6,3.7-3.9,5.6-10.5,5.6-19.8s-2-18-6-22.4c-4-4.4-9.5-6.6-16.6-6.6s-6.1.3-8,1c-1.7.7-3,2-3.8,4-.8,1.9-1.2,4.8-1.2,8.8v39.8ZM1373,1185.1c0,4,.4,7,1.2,9,.8,1.9,2.3,3.1,4.4,3.8,2.3.7,5.8,1,10.6,1s.4.4.4,1.2,0,1.2-.4,1.2c-4.3,0-7.6,0-10-.2l-14.4-.2-14,.2c-2.5,0-6,.2-10.4.2s-.4-.4-.4-1.2,0-1.2.4-1.2c4.8,0,8.3-.3,10.6-1,2.3-.7,3.8-1.9,4.6-3.8.8-2,1.2-5,1.2-9v-92.6c0-4-.4-6.9-1.2-8.8-.8-1.9-2.3-3.1-4.6-3.8-2.3-.8-5.8-1.2-10.6-1.2s-.4-.4-.4-1.2,0-1.2.4-1.2l10.4.2c5.9.3,10.5.4,14,.4s8.7-.1,14.6-.4l9.8-.2c.3,0,.4.4.4,1.2s0,1.2-.4,1.2c-4.7,0-8.1.4-10.4,1.2-2.3.8-3.8,2.2-4.6,4.2-.8,1.9-1.2,4.8-1.2,8.8v92.2h0ZM1586.4,1076.3c.4,0,.6.4.6,1.2s-.2,1.2-.6,1.2c-10.9,0-16.4,6.9-16.4,20.8v104.4c0,.3-.3.5-1,.6-.5,0-.9,0-1.2-.2l-93.8-111.2v85.2c0,7.1,1.3,12.3,3.8,15.6,2.7,3.3,6.7,5,12,5s.6.4.6,1.2-.2,1.2-.6,1.2c-3.5,0-6.1,0-8-.2l-10.2-.2-10.8.2c-2,0-4.9.2-8.8.2s-.4-.4-.4-1.2,0-1.2.4-1.2c5.7,0,9.9-1.7,12.6-5,2.8-3.3,4.2-8.5,4.2-15.6v-90.8c-5.9-5.9-11.7-8.8-17.4-8.8s-.6-.4-.6-1.2.2-1.2.6-1.2l7.8.2c1.6.1,3.9.2,6.8.2l10.4-.2c1.2-.1,2.7-.2,4.6-.2s1.8.3,2.2.8c.5.4,1.3,1.4,2.4,3,1.2,1.9,2.9,4.1,5,6.6l74.4,89.8v-77c0-7.1-1.3-12.3-3.8-15.6-2.5-3.5-6.5-5.2-11.8-5.2s-.4-.4-.4-1.2,0-1.2.4-1.2l8,.2c4,.3,7.4.4,10.2.4s5.9-.1,10.4-.4l8.4-.2h0ZM1719.9,1074.1c6.1,0,12.5.6,19,1.8,6.5,1.1,11.7,2.6,15.6,4.6,1.1.5,1.7,1.1,2,1.8.4.5.7,1.5,1,3l2.2,24.2c0,.4-.3.7-1,.8-.7,0-1.1-.2-1.2-.6-3.5-10.4-9.1-18.1-17-23.2-7.9-5.2-17.3-7.8-28.4-7.8s-18.2,2.3-25.4,6.8c-7.2,4.4-12.7,10.7-16.6,18.8-3.7,8.1-5.6,17.5-5.6,28.2s2.4,23.8,7.2,34.2c4.8,10.4,11.3,18.7,19.4,24.8,8.3,6,17.3,9,27,9,19.2,0,32.9-11,41.2-33,0-.4.3-.6.8-.6s.7,0,1,.2c.4,0,.6.3.6.6l-2.8,24.2c-.3,1.6-.6,2.7-1,3.2-.3.4-1,.9-2.2,1.4-12.3,4.8-24.8,7.2-37.6,7.2s-29.6-3.2-40.4-9.6c-10.8-6.5-18.7-14.8-23.8-24.8-5.1-10-7.6-20.5-7.6-31.4s3.4-23.4,10.2-33c6.9-9.7,16-17.3,27.2-22.6,11.3-5.5,23.4-8.2,36.2-8.2h0Z"/>
  <path class="cls-1" d="M648.7,1294h-8v28.3h-4.9v-28.3h-5.7v-2.3l5.7-1.6v-2.1c0-2.7.4-4.9,1.2-6.6.8-1.7,2-2.9,3.5-3.8,1.5-.8,3.4-1.2,5.6-1.2s2.4,0,3.4.3,1.9.5,2.7.7l-1.3,3.8c-.7-.2-1.4-.4-2.3-.6-.8-.2-1.7-.3-2.5-.3-1.9,0-3.2.6-4.1,1.8s-1.3,3.1-1.3,5.6v2.3h8v4ZM701.5,1306.2c0,2.6-.3,5-1,7.1s-1.7,3.8-3,5.2-2.9,2.5-4.7,3.3c-1.8.7-3.9,1.1-6.2,1.1s-4.1-.4-5.9-1.1c-1.8-.8-3.3-1.9-4.6-3.3-1.3-1.4-2.3-3.2-3-5.2-.7-2.1-1.1-4.4-1.1-7.1s.6-6.5,1.8-9c1.2-2.5,2.9-4.4,5.1-5.7s4.9-2,7.9-2,5.5.7,7.7,2,3.9,3.2,5.1,5.7,1.8,5.4,1.8,8.9h.1ZM677.1,1306.2c0,2.6.3,4.8,1,6.7s1.7,3.4,3.2,4.4c1.4,1,3.3,1.6,5.5,1.6s4.1-.5,5.5-1.6c1.4-1,2.5-2.5,3.2-4.4s1-4.1,1-6.7-.3-4.8-1-6.6c-.7-1.9-1.7-3.3-3.2-4.3-1.4-1-3.3-1.5-5.5-1.5-3.3,0-5.8,1.1-7.4,3.3-1.5,2.2-2.3,5.3-2.3,9.2h0ZM756.8,1306.2c0,2.6-.3,5-1,7.1s-1.7,3.8-3,5.2-2.9,2.5-4.7,3.3c-1.8.7-3.9,1.1-6.2,1.1s-4.1-.4-5.9-1.1c-1.8-.8-3.3-1.9-4.6-3.3-1.3-1.4-2.3-3.2-3-5.2-.7-2.1-1.1-4.4-1.1-7.1s.6-6.5,1.8-9c1.2-2.5,2.9-4.4,5.1-5.7s4.9-2,7.9-2,5.5.7,7.7,2,3.9,3.2,5.1,5.7,1.8,5.4,1.8,8.9h.1ZM732.4,1306.2c0,2.6.3,4.8,1,6.7s1.7,3.4,3.2,4.4c1.4,1,3.3,1.6,5.5,1.6s4.1-.5,5.5-1.6c1.4-1,2.5-2.5,3.2-4.4s1-4.1,1-6.7-.3-4.8-1-6.6c-.7-1.9-1.7-3.3-3.2-4.3-1.4-1-3.3-1.5-5.5-1.5-3.3,0-5.8,1.1-7.4,3.3-1.5,2.2-2.3,5.3-2.3,9.2h0ZM795.9,1322.9c-4.1,0-7.3-1.4-9.7-4.2-2.4-2.8-3.5-6.9-3.5-12.4s1.2-9.7,3.6-12.5c2.4-2.8,5.6-4.2,9.7-4.2s3.2.2,4.5.7c1.3.4,2.4,1.1,3.3,1.8s1.7,1.6,2.3,2.5h.4c0-.6-.2-1.4-.2-2.5s-.1-1.9-.1-2.6v-12.9h4.9v45.6h-3.9l-.7-4.6h-.2c-.6,1-1.4,1.8-2.3,2.6s-2,1.4-3.3,1.9c-1.3.4-2.8.7-4.5.7h-.3ZM796.6,1318.8c3.4,0,5.9-1,7.3-2.9s2.1-4.9,2.1-8.7v-.9c0-4.1-.7-7.2-2-9.4s-3.8-3.3-7.4-3.3-5.2,1.2-6.7,3.5-2.2,5.4-2.2,9.4.7,7,2.2,9.1c1.5,2.1,3.7,3.2,6.7,3.2h0ZM887.2,1289.7c3.8,0,6.7.9,8.5,2.6,1.9,1.7,2.8,4.5,2.8,8.2v21.8h-3.5l-.9-4.7h-.2c-.9,1.2-1.8,2.2-2.8,3s-2.1,1.4-3.4,1.8c-1.3.4-2.8.6-4.7.6s-3.7-.3-5.2-1c-1.5-.7-2.7-1.7-3.6-3.1-.9-1.4-1.3-3.1-1.3-5.3,0-3.2,1.3-5.7,3.8-7.4s6.4-2.7,11.6-2.8l5.5-.2v-2c0-2.8-.6-4.7-1.8-5.8s-2.9-1.7-5-1.7-3.3.2-4.8.7-3,1.1-4.3,1.7l-1.5-3.7c1.4-.7,3.1-1.4,5-1.9s3.8-.8,5.9-.8h0ZM893.7,1306.5l-4.9.2c-4,.2-6.8.8-8.5,2-1.6,1.2-2.5,2.8-2.5,4.9s.6,3.2,1.7,4.1c1.1.9,2.6,1.3,4.4,1.3,2.9,0,5.2-.8,7-2.4,1.8-1.6,2.7-4,2.7-7.1v-3h0ZM942.9,1289.6c3.8,0,6.7.9,8.6,2.8,2,1.9,2.9,4.8,2.9,9v20.9h-4.8v-20.6c0-2.7-.6-4.7-1.8-6s-3.1-2-5.6-2-6.1,1-7.5,3-2.2,4.9-2.2,8.8v16.8h-4.9v-32.1h3.9l.7,4.6h.3c.7-1.1,1.6-2.1,2.6-2.8,1.1-.8,2.2-1.4,3.5-1.8,1.3-.4,2.7-.6,4.1-.6h.2ZM995.1,1322.9c-4.1,0-7.3-1.4-9.7-4.2s-3.5-6.9-3.5-12.4,1.2-9.7,3.6-12.5c2.4-2.8,5.6-4.2,9.7-4.2s3.2.2,4.5.7c1.3.4,2.4,1.1,3.3,1.8.9.7,1.7,1.6,2.3,2.5h.4c0-.6-.2-1.4-.2-2.5s0-1.9,0-2.6v-12.9h4.9v45.6h-3.9l-.7-4.6h-.2c-.6,1-1.4,1.8-2.3,2.6-.9.8-2,1.4-3.3,1.9-1.3.4-2.8.7-4.5.7h-.3ZM995.9,1318.8c3.4,0,5.9-1,7.3-2.9,1.4-2,2.1-4.9,2.1-8.7v-.9c0-4.1-.7-7.2-2-9.4s-3.8-3.3-7.4-3.3-5.2,1.2-6.7,3.5-2.2,5.4-2.2,9.4.7,7,2.2,9.1c1.5,2.1,3.7,3.2,6.7,3.2h0ZM1095.2,1313.5c0,2.1-.5,3.8-1.6,5.2-1,1.4-2.5,2.4-4.4,3.1-1.9.7-4.2,1.1-6.8,1.1s-4.2-.2-5.8-.5c-1.6-.4-3.1-.9-4.3-1.5v-4.5c1.3.6,2.9,1.2,4.7,1.8,1.8.5,3.7.8,5.6.8,2.8,0,4.8-.4,6-1.3,1.2-.9,1.9-2.1,1.9-3.7s-.3-1.6-.8-2.3-1.3-1.3-2.5-2c-1.2-.6-2.8-1.3-4.9-2.1-2.1-.8-3.8-1.6-5.3-2.3-1.5-.8-2.6-1.7-3.5-2.8-.8-1.1-1.2-2.6-1.2-4.3,0-2.7,1.1-4.8,3.3-6.2,2.2-1.5,5.1-2.2,8.7-2.2s3.7.2,5.4.6c1.7.4,3.3.9,4.7,1.5l-1.6,3.9c-1.3-.6-2.7-1-4.2-1.4s-3-.6-4.6-.6-4,.4-5.2,1.1c-1.2.7-1.8,1.8-1.8,3s.3,1.8.8,2.5c.6.6,1.5,1.2,2.7,1.8,1.2.6,2.9,1.2,4.9,2,2,.7,3.8,1.5,5.2,2.3,1.5.8,2.6,1.7,3.4,2.9.8,1.1,1.2,2.5,1.2,4.3v-.2ZM1132.6,1318.9c.8,0,1.6,0,2.5-.2.8,0,1.5-.3,2.1-.5v3.8c-.6.3-1.4.5-2.4.6-1,.2-2,.3-2.9.3-1.7,0-3.2-.3-4.6-.9-1.4-.6-2.5-1.6-3.3-3s-1.2-3.4-1.2-5.9v-19h-4.6v-2.4l4.6-1.9,1.9-7h2.9v7.4h9.4v3.8h-9.4v18.9c0,2,.5,3.5,1.4,4.5s2.2,1.5,3.7,1.5h-.1ZM1190.5,1306.2c0,2.6-.3,5-1,7.1-.7,2.1-1.7,3.8-3,5.2-1.3,1.4-2.9,2.5-4.7,3.3-1.8.7-3.9,1.1-6.2,1.1s-4.1-.4-5.9-1.1c-1.8-.8-3.3-1.9-4.6-3.3-1.3-1.4-2.3-3.2-3-5.2-.7-2.1-1.1-4.4-1.1-7.1s.6-6.5,1.8-9c1.2-2.5,2.9-4.4,5.1-5.7,2.2-1.3,4.9-2,7.9-2s5.5.7,7.7,2,3.9,3.2,5.1,5.7c1.2,2.5,1.8,5.4,1.8,8.9h.1ZM1166,1306.2c0,2.6.3,4.8,1,6.7.7,1.9,1.7,3.4,3.2,4.4,1.4,1,3.3,1.6,5.5,1.6s4.1-.5,5.5-1.6c1.4-1,2.5-2.5,3.2-4.4s1-4.1,1-6.7-.3-4.8-1-6.6c-.7-1.9-1.7-3.3-3.2-4.3-1.4-1-3.3-1.5-5.5-1.5-3.3,0-5.8,1.1-7.4,3.3-1.5,2.2-2.3,5.3-2.3,9.2h0ZM1232.7,1289.6c.6,0,1.3,0,2,0,.7,0,1.3,0,1.9.3l-.6,4.5c-.5,0-1.1-.2-1.8-.3-.6,0-1.2,0-1.8,0-1.3,0-2.5.3-3.7.8-1.1.5-2.1,1.2-3,2.2-.9,1-1.5,2.1-2,3.5-.5,1.3-.7,2.9-.7,4.5v17.2h-4.9v-32.1h4l.5,5.9h.2c.7-1.2,1.5-2.3,2.4-3.3.9-1,2-1.8,3.3-2.4,1.2-.6,2.6-.9,4.2-.9h0ZM1266.7,1290.2v32.1h-4.9v-32.1h4.9ZM1264.3,1278.2c.8,0,1.5.3,2.1.8s.9,1.3.9,2.4-.3,1.9-.9,2.4c-.6.5-1.2.8-2.1.8s-1.5-.3-2.1-.8c-.5-.5-.8-1.3-.8-2.4s.3-1.9.8-2.4c.6-.5,1.3-.8,2.1-.8ZM1308.6,1289.6c2.7,0,5.1.6,7,1.8,1.9,1.2,3.4,2.9,4.5,5.1,1,2.2,1.6,4.7,1.6,7.6v3h-22.2c0,3.8,1,6.6,2.8,8.6s4.4,3,7.7,3,3.8-.2,5.4-.6c1.6-.4,3.2-.9,4.9-1.6v4.3c-1.6.7-3.2,1.2-4.8,1.6-1.6.3-3.5.5-5.6.5-3.1,0-5.8-.6-8.1-1.9-2.3-1.3-4.1-3.1-5.3-5.6-1.3-2.4-1.9-5.4-1.9-9s.6-6.4,1.7-9c1.2-2.5,2.8-4.5,4.9-5.9,2.1-1.4,4.6-2,7.5-2h-.1ZM1308.5,1293.6c-2.6,0-4.7.8-6.2,2.5s-2.5,4.1-2.8,7.1h17c0-1.9-.3-3.6-.9-5-.6-1.5-1.4-2.6-2.6-3.4-1.2-.8-2.7-1.2-4.5-1.2h0ZM1369.9,1313.5c0,2.1-.5,3.8-1.5,5.2s-2.5,2.4-4.4,3.1c-1.9.7-4.2,1.1-6.8,1.1s-4.2-.2-5.8-.5c-1.6-.4-3.1-.9-4.3-1.5v-4.5c1.3.6,2.9,1.2,4.7,1.8,1.8.5,3.7.8,5.6.8,2.8,0,4.8-.4,6-1.3,1.2-.9,1.9-2.1,1.9-3.7s-.2-1.6-.8-2.3c-.5-.7-1.3-1.3-2.5-2-1.2-.6-2.8-1.3-4.9-2.1s-3.8-1.6-5.3-2.3c-1.5-.8-2.6-1.7-3.5-2.8-.8-1.1-1.2-2.6-1.2-4.3,0-2.7,1.1-4.8,3.3-6.2,2.2-1.5,5.1-2.2,8.7-2.2s3.7.2,5.4.6c1.7.4,3.3.9,4.8,1.5l-1.7,3.9c-1.3-.6-2.7-1-4.2-1.4s-3-.6-4.6-.6-4,.4-5.2,1.1c-1.2.7-1.8,1.8-1.8,3s.3,1.8.8,2.5c.6.6,1.5,1.2,2.7,1.8,1.2.6,2.8,1.2,4.9,2,2,.7,3.8,1.5,5.2,2.3,1.5.8,2.6,1.7,3.4,2.9.8,1.1,1.2,2.5,1.2,4.3v-.2Z"/>
  <path class="cls-1" d="M1045.6,625.8s0,0,.2,0c0,0,0-.1,0-.2h.3v-.3s0,0,0,.2c0,0,0,0,.2,0v.3h.3s0,0-.2.1c0,0,0,0,0,.2h-.2v-.2h-.2v.2h0v.3s0-.1,0-.2c0,0,0,0-.2,0v-.3h-.3ZM1139,722.4l-2.4-8.6v-.3l-.2.3-2.4,8.6-8.9,2.3h-.4l.4.2,8.9,2.3,2.4,8.6v.3l.2-.3,2.4-8.6,8.9-2.3h.3l-.3-.2-8.9-2.3ZM901.6,719.5l1.5,5.2v.2-.2c0,0,1.6-5.2,1.6-5.2l5.4-1.4h.2-.2c0,0-5.4-1.5-5.4-1.5l-1.5-5.2v-.2.2c0,0-1.6,5.2-1.6,5.2l-5.4,1.4h-.2.2c0,0,5.4,1.5,5.4,1.5ZM955.7,606.8c42,4.8,67.3,6.3,80.7,11.9-6.9-8.4-14.5-24.4-27.6-49,17.7,21.7,29.6,35,34.7,44.6.3-14.1,9.3-37,22.2-76-5,40.7-6.6,65.1-12.3,78.1,8.7-6.7,25.3-14,50.7-26.7-22.5,17.2-36.2,28.7-46.1,33.6,14.5.3,38.2,9,78.5,21.5-42-4.8-67.3-6.3-80.7-11.9h0c6.9,8.4,14.5,24.4,27.6,49-17.7-21.7-29.6-35-34.7-44.6-.3,14.1-9.3,37-22.2,76,5-40.7,6.6-65.1,12.3-78.1-8.7,6.7-25.3,14-50.7,26.7,22.5-17.2,36.2-28.7,46.1-33.6-14.5-.3-38.2-9-78.5-21.5ZM1045.8,625.7c-.1,0-.2,0-.2,0h.3v.3c.1,0,.2,0,.2,0,0,0,0,.2,0,.2v-.3h0v-.2h.2v.2h.2c0,0,0-.2,0-.2.1-.1.2-.1.2-.1h-.3v-.3c-.1,0-.2,0-.2,0,0,0,0-.2,0-.2v.3h-.3c0,0,0,.2,0,.2ZM1162.3,599.7c-9.7-3-15.4-5.1-18.9-5.2,2.4-1.2,5.7-4,11.1-8.1-6.1,3-10.1,4.8-12.2,6.4,1.4-3.1,1.8-9,2.9-18.8-3.1,9.4-5.3,14.9-5.3,18.3-1.2-2.3-4.1-5.5-8.4-10.7,3.1,5.9,5,9.8,6.6,11.8-3.2-1.3-9.3-1.7-19.4-2.8,9.7,3,15.4,5.1,18.9,5.2-2.4,1.2-5.7,4-11.1,8.1,6.1-3,10.1-4.8,12.2-6.4-1.4,3.1-1.8,9-2.9,18.8,3.1-9.4,5.3-14.9,5.3-18.3,1.2,2.3,4.1,5.5,8.4,10.7-3.1-5.9-5-9.8-6.6-11.8,3.2,1.3,9.3,1.7,19.4,2.8ZM973.8,664.2c1.6-.8,3.7-2.6,7.3-5.3-4,2-6.6,3.2-8,4.2.9-2.1,1.2-5.9,2-12.4-2,6.2-3.5,9.8-3.5,12-.8-1.5-2.7-3.6-5.5-7.1,2.1,3.9,3.3,6.4,4.4,7.8-2.1-.9-6.1-1.1-12.8-1.9,6.4,2,10.1,3.4,12.4,3.4-1.6.8-3.7,2.6-7.3,5.3,4-2,6.6-3.2,8-4.2-.9,2.1-1.2,5.9-2,12.4,2-6.2,3.5-9.8,3.5-12,.8,1.5,2.7,3.6,5.5,7.1-2.1-3.9-3.3-6.4-4.4-7.8,2.1.9,6.1,1.1,12.8,1.9-6.4-2-10.1-3.4-12.4-3.4ZM1097.6,1003.2c.7,0,1.4.3,2,.8s.6.5.9.7c-11.5.7-50.5,1-86.5,1.1-68.2,0-83.4-.5-83.4-1.1s5.5-.6,14.8-1.7c14.1-1.6,19.6-3.8,27.4-5.6-.3-1.5-.5-3-.8-4.5-3.4-19.9.2-39.5-1.3-58.6-.2-1.7-.3-2.3-.4-3.2,0-.4-.1-.9-.2-1.5s.2-1.1.7-1.3.6-.3,1-.5c2.4-1.4,6.7-4.8,10.9-13.3,1.3-2.7,5.4-11.6,8.3-24.4,1-4.2,1.8-8.8,2.4-13.9.5-4.7.9-9.7.9-15.1,0-3.4-.1-6.9-.4-10.6l-1.5-1.6c0,2.8-.3,9.6-1.1,17.3-.8,7.8-2.4,16.4-4.1,22.9-3.6,14.6-8.8,23.6-13.8,28.9-1.2,1.5-2.5,2.8-3.8,3.8-2.7,2.3-9.3,7-21.4,7.8-.3,0-.6,0-.8-.3,3.2-1.1,5.6-2.7,5.2-7.9s-7.7-9.7-16.1-3.3c-10.3,6.4-14.4,8.6-20.7,11.8-14.1,7.1-25.9,5.4-25.9,5.3,0-.2,5.2-1.7,7-6,.6-1.7.8-3.6.3-5.7,0-.2-.2-2.6-3.2-4.9-3-2.3-7.9-2.7-13.3-1.6-13.1,2.7-31.3,15.4-37.4,33.5-2.2,6.4-.9,8.3-.9,8.3-.4.9-1.8.6-1.8-.4-1.5-6.6-9.2-28,8.2-53.1,3.5-5,12-18.3,31.8-29.2,2.6-1.4,6.2-3.7,11.8-6.9,21.6-12.5,42.3-20.3,50.7-41.1,1.5-3.8,3.7-13.2,3.7-13.2.7-2.2,1.1-3,2.2-2.9.6,0,.3,0,1.6.7.8.4,1.9,1.4,2.6,1.2s1.6-.6.3-1.6c-1.7-1.4-2.6-1.9-2.9-2.5-.9-1.4-.6-3.1-.3-5.9,0,0,1.5-6.6,2.7-11.2.6-2.3,2.2-7.4,2.8-7.6s1.1.2,1.4.5c5,8.2,14,12.8,17.2,12.4s.3-.4,0-.5c-10.4-5.5-17.1-15.7-16.8-26.4.6-14.7,10.2-23.7,19.5-26.8,2.2-.8,13.5-4.5,23.9,1.1,13.2,7.2,14.2,23.7,14.5,28.3.4,7.5-1.3,13.6-2.7,17.4,3.8-.6,9.5-2.1,15.6-5.6,1.3-.7,9.2-5.2,15.2-13.9,6.1-8.7,7.7-23.7,9.6-46.4,1-12.5,1.8-22.6,2.3-28.8.6-.1,1.2-.1,1.8-.1-4.7-6.6-6.9-10-6.4-10.4.4-.2,2.3,1.3,5.7,4.7.2-1.3,1.4-8.1,2.1-10.9.5-2,1.1-3.7,1.5-3.7.6,0,1.3,1.7,2.2,7.1.5,3,1,7.1,1.5,12.7.6,0,1.2,0,1.8,0,3.2,19.3,3.8,35.5,3.6,47-.3,17.3-.7,28.1-6.3,41-3.5,8.2-9.2,15.3-18.2,25.1l-17,17.1,2.4,7.7c3.8,12.5,5.7,25.5,5.6,38.6s-.1,5.3-.2,8.1c-.3,5.1-.6,10.1-1,14.9,0,.6-.5,1-1.1,1.1-3.8.3-6.7.5-8.6.7l-.4.7c1.8,0,4.6,0,8.5,0s.8.3.8.7c.7,4.9,1.3,9.7,1.9,14.6,3.6,28.9,6.9,57.7,9.8,86.1,8.3,1.4,15.1,1.9,19.6,2.1,6.7.3,18.8.5,32.4,2ZM1029,997.4c-3.6-14.7-7.9-25-11.1-38.4-2.5-10.4-5.4-19.8-9.9-26.6-.9-1.4-1.9-2.8-3-4-3.5-3.9-9-7.6-10-8.2v1.1c.6.4,1.3.9,1.9,1.4.9.7,1.7,1.4,2,1.7,1,.9,1.8,1.7,1.8,1.7,2.7,2.6-6.3,28-8.1,36.3-1,4.7-1.6,9-2.8,17.5-1.1,7.9-1.7,12.5-2.1,16.8,16.7-.6,31.6.3,41.3.7Z"/>
</svg>