<svg viewBox="0 0 806.89 197.98" xmlns="http://www.w3.org/2000/svg" data-name="Layer 2" id="Layer_2">
  <defs>
    <style>
      .cls-1 {
        fill: #dfdfdf;
      }

      .cls-2 {
        fill: #53ff45;
      }
    </style>
  </defs>
  <g data-name="Layer 1" id="Layer_1-2">
    <g>
      <g>
        <path d="M651.19,67.32c-3.65-.66-6.64-1.55-8.95-2.67v-8.62c6,2.81,12.46,4.22,19.4,4.22,9.74,0,14.62-3.28,14.62-9.84,0-2.25-.53-4.06-1.59-5.43-1.06-1.37-2.59-2.58-4.59-3.61-2-1.03-5.25-2.45-9.74-4.26-6.18-2.5-10.65-5.25-13.4-8.25-2.75-3-4.12-6.78-4.12-11.34,0-3.43.94-6.48,2.81-9.14,1.87-2.65,4.5-4.72,7.87-6.18,3.37-1.47,7.25-2.2,11.62-2.2,3.56,0,6.78.28,9.65.84,2.87.56,5.68,1.47,8.43,2.72v8.25c-5.43-2.44-10.93-3.65-16.49-3.65-4.5,0-7.93.81-10.31,2.44-2.37,1.63-3.56,3.94-3.56,6.93,0,2.06.52,3.79,1.55,5.2,1.03,1.41,2.56,2.66,4.59,3.75,2.03,1.09,5.04,2.45,9.04,4.08,4.43,1.81,7.93,3.53,10.49,5.15,2.56,1.63,4.51,3.61,5.86,5.95,1.34,2.34,2.01,5.26,2.01,8.76,0,5.69-2.03,10.09-6.09,13.21-4.06,3.12-10.06,4.69-17.99,4.69-3.75,0-7.45-.33-11.1-.98Z" class="cls-2"></path>
        <path d="M692.85,1.41h43.2v8.06h-33.64v20.71h25.11v7.96h-25.11v20.8h33.64v7.96h-43.2V1.41Z" class="cls-2"></path>
        <path d="M754.79,64.04c-5.25-2.84-9.37-6.85-12.37-12.04-3-5.18-4.5-11.12-4.5-17.8s1.5-12.62,4.5-17.8c3-5.18,7.12-9.21,12.37-12.09,5.25-2.87,11.12-4.31,17.62-4.31s12.37,1.44,17.62,4.31c5.25,2.87,9.37,6.9,12.37,12.09,3,5.19,4.5,11.12,4.5,17.8s-1.5,12.62-4.5,17.8c-3,5.19-7.12,9.2-12.37,12.04-5.25,2.84-11.12,4.26-17.62,4.26s-12.37-1.42-17.62-4.26ZM785.01,56.55c3.78-2.09,6.76-5.06,8.95-8.9,2.19-3.84,3.28-8.32,3.28-13.45s-1.08-9.51-3.23-13.35c-2.15-3.84-5.11-6.81-8.85-8.9-3.75-2.09-7.93-3.14-12.56-3.14s-8.92,1.03-12.7,3.09c-3.78,2.06-6.78,5.03-9,8.9-2.22,3.87-3.33,8.34-3.33,13.4s1.09,9.6,3.28,13.45c2.19,3.84,5.17,6.81,8.95,8.9,3.78,2.09,7.98,3.14,12.6,3.14s8.82-1.05,12.6-3.14Z" class="cls-2"></path>
      </g>
      <g>
        <path d="M0,26.42h88.17v16.45H19.51v42.65h51.26v15.49H19.51v59.1H0V26.42Z" class="cls-1"></path>
        <path d="M96.68,18.77h19.32v141.33h-19.32V18.77Z" class="cls-1"></path>
        <path d="M130.48,195.87v-15.11c3.31,1.27,7.39,1.91,12.24,1.91,4.46,0,7.97-1.12,10.52-3.35,2.55-2.23,4.84-5.83,6.89-10.81l4.4-10.71-30.12-69.43h0c12.03,0,22.86,7.28,27.39,18.42l13.06,32.07,21.05-52.13c4.5-11.15,15.32-18.44,27.34-18.44h0l-41.31,102.13c-3.83,9.56-8.39,16.54-13.67,20.94-5.29,4.4-12.14,6.6-20.56,6.6-6.89,0-12.62-.7-17.21-2.1Z" class="cls-1"></path>
        <path d="M235.62,26.42h53.74c14.28,0,25.25,3.44,32.9,10.33,7.65,6.88,11.47,16.96,11.47,30.22,0,9.82-2.61,18.14-7.84,24.96-5.23,6.82-12.62,11.45-22.18,13.87l29.45,54.32h-20.27l-28.5-52.79h-29.26v52.79h-19.51V26.42ZM286.11,90.88c8.54,0,15.33-2.01,20.37-6.02,5.04-4.02,7.56-9.98,7.56-17.88,0-8.67-2.46-14.85-7.36-18.55-4.91-3.7-11.76-5.55-20.56-5.55h-30.98v48h30.98Z" class="cls-1"></path>
        <path d="M350.51,154.47c-6.69-5.67-10.04-13.35-10.04-23.05,0-10.2,3.22-18.07,9.66-23.62,6.44-5.55,15.59-8.32,27.44-8.32,12.62,0,23.33,2.55,32.13,7.65v-4.78c0-7.27-2.2-12.65-6.6-16.16-4.4-3.5-11.32-5.26-20.75-5.26-5.61,0-11.06.54-16.35,1.63-5.29,1.08-10.04,2.58-14.25,4.49v-15.68c3.82-1.78,8.8-3.22,14.92-4.3,6.12-1.08,12.05-1.63,17.79-1.63,15.17,0,26.42,3.35,33.76,10.04,7.33,6.69,11,15.97,11,27.83v56.8h-18.17v-10.33c-3.95,4.34-8.64,7.62-14.06,9.85-5.42,2.23-12.02,3.35-19.79,3.35-11.09,0-19.99-2.84-26.68-8.51ZM398.61,144.62c4.97-2.42,8.67-5.8,11.09-10.14v-12.43c-8.29-5.36-17.53-8.03-27.73-8.03-7.4,0-12.91,1.43-16.54,4.3-3.63,2.87-5.45,7.24-5.45,13.1,0,11.22,7.33,16.83,21.99,16.83,6.12,0,11.67-1.21,16.64-3.63Z" class="cls-1"></path>
        <path d="M442.45,68.31h18.74v13.2c4.33-5.48,9.66-9.53,15.97-12.15,6.31-2.61,12.91-3.92,19.79-3.92,12.24,0,21.35,3.25,27.35,9.75,5.99,6.5,8.99,15.24,8.99,26.2v58.71h-19.32v-56.8c0-14.92-7.14-22.38-21.42-22.38-6.12,0-11.83,1.43-17.12,4.3-5.29,2.87-9.85,7.24-13.67,13.1v61.77h-19.32v-91.8Z" class="cls-1"></path>
        <path d="M546.54,18.77h19.32v141.33h-19.32V18.77ZM566.05,113.64l42.27-45.33h23.52l-42.46,45.33,46.86,46.47h-23.52l-46.67-46.47Z" class="cls-1"></path>
      </g>
    </g>
  </g>
</svg>