<svg xmlns="http://www.w3.org/2000/svg" fill="none" viewBox="0 0 1040 317" height="317" width="1040">
<rect fill="#00ADB8" height="21" width="1040" y="1"></rect>
<rect fill="#00ADB8" height="23" width="1040" y="224"></rect>
<rect fill="#00ADB8" height="245.692" width="22.6037" y="1" x="1017.17"></rect>
<path fill="white" d="M1017.17 21.6377H122.846V224.088H1017.17V21.6377Z"></path>
<path fill="#00ADB8" d="M0 0V246.112H123.046V128.997H95.4666V174.683H81.3234V71.4292H95.4666V114.994H123.046V0H0Z"></path>
<path fill="#00ADB8" d="M0 0V246.183H1039.45V0H0ZM1027.5 234.16H23.902V12.0935H1027.5V234.16Z"></path>
<path fill="#181819" d="M150.627 72.4277V115.992H123.048V129.995H150.627V175.682H164.77V72.4277H150.627Z"></path>
<path fill="white" d="M95.4674 71.4277V114.992H123.047V129.066H95.4674V174.682H81.3242V71.4277H95.4674Z"></path>
<path fill="#181819" d="M207.835 135.018C207.835 138.695 208.542 142.161 209.886 145.414C211.229 148.667 213.209 151.567 215.614 153.971C218.018 156.376 220.847 158.356 224.099 159.7C227.352 161.114 230.817 161.751 234.424 161.751C238.101 161.751 241.566 161.043 244.749 159.7C248.001 158.285 250.83 156.376 253.234 153.971C255.639 151.567 257.548 148.667 258.962 145.414C260.306 142.161 261.013 138.625 261.013 135.018V72.9946H275.086V135.018C275.086 138.766 274.591 142.444 273.671 145.909C272.681 149.374 271.338 152.627 269.57 155.669C267.802 158.71 265.68 161.468 263.205 163.943C260.73 166.418 257.972 168.54 254.932 170.379C251.891 172.147 248.709 173.561 245.244 174.481C241.778 175.471 238.172 175.966 234.424 175.966C230.676 175.966 227.14 175.471 223.675 174.481C220.21 173.49 217.028 172.147 213.987 170.379C211.017 168.611 208.259 166.489 205.713 163.943C203.238 161.468 201.117 158.71 199.349 155.669C197.581 152.627 196.237 149.374 195.247 145.838C194.257 142.373 193.833 138.695 193.833 134.947V72.9238H207.905V135.018H207.835Z"></path>
<path fill="#181819" d="M305.635 174.764V72.9951H319.637V160.69H363.269V174.764H305.635Z"></path>
<path fill="#181819" d="M401.596 174.764H387.594V72.9951H401.596V174.764ZM413.264 118.045L441.551 79.4308C442.894 77.3092 444.662 75.6825 446.713 74.6217C448.834 73.5609 451.239 72.9951 453.926 72.9951H463.543L428.822 120.45C428.327 121.086 427.832 121.581 427.407 121.935C426.983 122.218 426.7 122.43 426.629 122.43C426.7 122.5 426.983 122.713 427.407 122.996C427.832 123.278 428.327 123.773 428.822 124.41L465.877 174.764H456.259C453.572 174.764 451.168 174.269 449.046 173.137C446.925 172.077 445.228 170.45 443.884 168.328L413.264 126.885C412.628 126.107 412.062 125.4 411.496 124.905C410.931 124.339 410.365 123.915 409.87 123.561C409.375 123.208 408.95 122.996 408.597 122.783C408.243 122.642 408.102 122.5 408.031 122.5C408.031 122.5 408.243 122.43 408.597 122.288C408.95 122.147 409.375 121.935 409.87 121.581C410.365 121.227 410.931 120.803 411.496 120.237C412.062 119.601 412.698 118.894 413.264 118.045Z"></path>
<path fill="#181819" d="M472.808 174.341H484.829L514.459 72.9961H502.084L472.808 174.341Z"></path>
<path fill="#181819" d="M903.609 179.574L905.659 176.674L907.215 174.553L912.165 167.763L917.115 160.974L922.136 154.043L926.733 147.749L932.39 139.97L935.784 135.302L937.764 132.615L938.26 131.978C938.26 131.978 938.825 131.271 938.896 131.2C938.896 131.2 939.462 130.493 939.886 130.281C939.886 130.281 940.381 129.927 940.522 129.856C940.522 129.856 939.957 129.432 939.815 129.361C939.815 129.361 939.179 128.937 938.613 128.23C938.613 128.23 938.047 127.523 937.835 127.24L901.346 77.2393H901.558H901.982H908.347H911.246C911.246 77.2393 913.155 77.2393 914.428 77.5221C914.428 77.5221 915.63 77.7343 916.691 78.1586C916.691 78.1586 917.54 78.4415 917.893 78.6537C917.893 78.6537 918.883 79.1487 919.095 79.2902C919.095 79.2902 920.015 79.856 920.368 80.2096C920.368 80.2096 921.429 81.129 921.641 81.3411C921.641 81.3411 922.985 82.7556 923.621 83.8871C923.621 83.8871 926.167 87.3525 926.521 87.9183L930.056 92.7981L933.592 97.6072L936.774 101.992L940.027 106.447L942.856 110.266L946.533 115.288L950.776 121.158L954.029 125.613C954.029 125.613 955.585 127.805 957.353 128.866C957.353 128.866 958.201 129.432 959.191 129.927C959.191 129.927 957.848 130.351 956.646 131.412C956.646 131.412 955.302 132.544 954.383 133.817L952.191 136.787L950.14 139.545L948.23 142.162L945.897 145.344L943.846 148.103L941.512 151.285L938.967 154.751L936.421 158.216L933.946 161.611L931.259 165.359L928.713 168.895L926.096 172.572L924.965 174.199C924.965 174.199 923.904 175.613 923.197 176.179C923.197 176.179 921.924 177.311 920.651 177.947C920.651 177.947 919.095 178.796 917.186 179.22C917.186 179.22 915.913 179.503 915.135 179.574C915.135 179.574 913.297 179.715 911.953 179.645L903.609 179.574Z"></path>
<path fill="#181819" d="M595.146 157.436C596.702 157.436 597.833 157.79 598.47 158.497C599.106 159.204 599.46 160.407 599.46 162.175C599.46 163.943 599.106 165.145 598.47 165.852C597.833 166.559 596.702 166.913 595.146 166.913H590.762C589.347 166.913 588.004 166.772 586.731 166.418C585.458 166.064 584.256 165.499 583.266 164.791C582.205 164.084 581.356 163.094 580.579 162.033C579.801 160.902 579.306 159.629 578.952 158.073C575.346 161.255 571.315 163.801 567.001 165.711C562.617 167.62 557.949 168.54 552.858 168.54C549.393 168.54 546.281 168.115 543.382 167.196C540.483 166.277 538.007 164.933 535.886 163.235C533.765 161.467 532.138 159.346 530.936 156.87C529.734 154.395 529.168 151.496 529.168 148.242C529.168 144.353 529.946 141.029 531.431 138.271C532.916 135.512 534.967 133.32 537.512 131.623C540.058 129.925 543.028 128.723 546.423 127.874C549.817 127.097 553.353 126.672 557.101 126.672C560.849 126.672 564.455 126.955 567.92 127.592C571.385 128.157 574.78 129.077 578.033 130.208V124.268C578.033 119.741 576.972 116.418 574.851 114.367C572.729 112.245 569.052 111.184 563.89 111.184C560.142 111.184 556.394 111.679 552.716 112.669C548.968 113.659 545.645 115.215 542.745 117.337C541.685 118.115 540.624 118.398 539.493 118.186C538.361 117.973 537.3 117.125 536.31 115.71C535.32 114.296 534.896 113.023 535.108 111.821C535.32 110.689 535.957 109.699 537.017 108.921C538.785 107.577 540.765 106.446 542.958 105.385C545.15 104.395 547.342 103.546 549.676 102.98C552.009 102.344 554.343 101.92 556.747 101.566C559.152 101.283 561.556 101.142 563.89 101.142C572.093 101.142 578.245 103.122 582.346 107.012C586.377 110.901 588.428 116.7 588.428 124.338V152.132C588.428 155.81 589.913 157.648 592.954 157.648L595.146 157.436ZM577.891 139.473C574.709 138.412 571.385 137.634 567.779 137.139C564.172 136.644 560.637 136.361 557.03 136.361C554.555 136.361 552.292 136.573 550.171 136.998C548.049 137.422 546.281 138.058 544.796 138.978C543.311 139.897 542.109 141.099 541.26 142.514C540.412 143.928 539.988 145.767 539.988 147.818C539.988 151.213 541.19 153.829 543.453 155.739C545.786 157.648 549.039 158.568 553.211 158.568C558.162 158.568 562.617 157.507 566.718 155.456C570.82 153.405 574.568 150.576 577.962 147.04V139.473H577.891Z"></path>
<path fill="#181819" d="M625.979 111.963H620.322C618.766 111.963 617.635 111.61 616.998 110.902C616.362 110.195 616.008 108.993 616.008 107.225C616.008 105.457 616.362 104.255 616.998 103.547C617.635 102.84 618.766 102.487 620.322 102.487H631.283C632.839 102.487 633.97 102.84 634.607 103.547C635.243 104.255 635.597 105.457 635.597 107.225V112.812C638.425 109.064 641.749 106.093 645.568 104.042C649.386 101.991 653.558 100.931 658.155 100.931C662.398 100.931 666.358 101.638 669.965 103.123C673.571 104.608 676.753 106.659 679.37 109.417C681.986 112.175 684.108 115.499 685.593 119.46C687.078 123.42 687.856 127.876 687.856 132.897C687.856 137.918 687.078 142.374 685.593 146.334C684.108 150.295 681.986 153.619 679.37 156.377C676.753 159.135 673.571 161.186 669.965 162.671C666.358 164.156 662.398 164.863 658.155 164.863C653.558 164.863 649.457 163.944 645.85 162.034C642.244 160.125 639.062 157.437 636.304 153.972V184.736H651.578C653.134 184.736 654.266 185.09 654.902 185.797C655.538 186.504 655.892 187.706 655.892 189.475C655.892 191.243 655.538 192.445 654.902 193.152C654.266 193.859 653.134 194.213 651.578 194.213H618.271C616.715 194.213 615.584 193.859 614.948 193.152C614.311 192.445 613.958 191.243 613.958 189.475C613.958 187.706 614.311 186.504 614.948 185.797C615.584 185.09 616.715 184.736 618.271 184.736H625.979V111.963ZM636.304 132.968C636.304 136.433 636.799 139.474 637.86 142.162C638.92 144.849 640.405 147.112 642.244 148.951C644.153 150.79 646.345 152.204 648.962 153.194C651.508 154.184 654.336 154.679 657.377 154.679C660.489 154.679 663.247 154.184 665.722 153.053C668.197 151.992 670.177 150.507 671.874 148.527C673.5 146.617 674.773 144.283 675.693 141.666C676.541 139.05 676.965 136.15 676.965 132.968C676.965 129.785 676.541 126.886 675.693 124.269C674.844 121.652 673.571 119.318 671.874 117.409C670.247 115.499 668.197 114.014 665.722 112.883C663.247 111.822 660.559 111.256 657.377 111.256C654.336 111.256 651.508 111.751 648.962 112.741C646.416 113.731 644.153 115.075 642.244 116.985C640.335 118.823 638.92 121.086 637.86 123.774C636.869 126.461 636.304 129.502 636.304 132.968Z"></path>
<path fill="#181819" d="M718.333 111.963H712.675C711.12 111.963 709.988 111.61 709.352 110.902C708.715 110.195 708.362 108.993 708.362 107.225C708.362 105.457 708.715 104.255 709.352 103.547C709.988 102.84 711.12 102.487 712.675 102.487H723.636C725.192 102.487 726.324 102.84 726.96 103.547C727.597 104.255 727.95 105.457 727.95 107.225V112.812C730.779 109.064 734.102 106.093 737.921 104.042C741.74 101.991 745.912 100.931 750.509 100.931C754.752 100.931 758.712 101.638 762.318 103.123C765.925 104.608 769.107 106.659 771.723 109.417C774.34 112.175 776.461 115.499 777.946 119.46C779.431 123.42 780.209 127.876 780.209 132.897C780.209 137.918 779.431 142.374 777.946 146.334C776.461 150.295 774.34 153.619 771.723 156.377C769.107 159.135 765.925 161.186 762.318 162.671C758.712 164.156 754.752 164.863 750.509 164.863C745.912 164.863 741.81 163.944 738.204 162.034C734.597 160.125 731.415 157.437 728.657 153.972V184.736H743.932C745.488 184.736 746.619 185.09 747.256 185.797C747.892 186.504 748.246 187.706 748.246 189.475C748.246 191.243 747.892 192.445 747.256 193.152C746.619 193.859 745.488 194.213 743.932 194.213H710.625C709.069 194.213 707.938 193.859 707.301 193.152C706.665 192.445 706.311 191.243 706.311 189.475C706.311 187.706 706.665 186.504 707.301 185.797C707.938 185.09 709.069 184.736 710.625 184.736H718.333V111.963ZM728.657 132.968C728.657 136.433 729.152 139.474 730.213 142.162C731.274 144.849 732.759 147.112 734.597 148.951C736.436 150.79 738.699 152.204 741.315 153.194C743.861 154.184 746.69 154.679 749.731 154.679C752.842 154.679 755.6 154.184 758.075 153.053C760.55 151.992 762.53 150.507 764.227 148.527C765.854 146.617 767.127 144.283 768.046 141.666C768.895 139.05 769.319 136.15 769.319 132.968C769.319 129.785 768.895 126.886 768.046 124.269C767.197 121.652 765.925 119.318 764.227 117.409C762.601 115.499 760.55 114.014 758.075 112.883C755.6 111.822 752.913 111.256 749.731 111.256C746.69 111.256 743.861 111.751 741.315 112.741C738.77 113.731 736.507 115.075 734.597 116.985C732.688 118.823 731.274 121.086 730.213 123.774C729.152 126.461 728.657 129.502 728.657 132.968Z"></path>
<path fill="#181819" d="M819.457 163.944C819.457 165.571 819.103 166.702 818.325 167.409C817.548 168.117 816.204 168.47 814.295 168.47C812.385 168.47 811.042 168.117 810.264 167.409C809.486 166.702 809.132 165.571 809.132 163.944V147.254C809.132 145.627 809.486 144.495 810.264 143.788C811.042 143.081 812.385 142.727 814.295 142.727C815.285 142.727 816.063 142.939 816.628 143.435C817.194 143.93 817.618 144.637 817.972 145.627C819.669 150.153 822.427 153.406 826.316 155.387C830.135 157.437 835.297 158.428 841.662 158.428C847.178 158.428 851.279 157.437 854.037 155.457C856.795 153.477 858.139 150.86 858.139 147.678C858.139 145.981 857.644 144.708 856.583 143.647C855.522 142.657 854.108 141.808 852.34 141.242C850.289 140.535 847.955 140.04 845.339 139.686C842.722 139.333 839.894 139.05 836.924 138.696C833.954 138.343 831.054 137.989 828.155 137.423C825.256 136.928 822.568 136.15 820.093 135.16C818.538 134.594 817.123 133.816 815.85 132.897C814.577 132.048 813.446 130.987 812.527 129.785C811.607 128.583 810.83 127.168 810.335 125.613C809.84 124.057 809.557 122.218 809.557 120.167C809.557 117.055 810.193 114.297 811.395 111.893C812.668 109.488 814.365 107.508 816.487 105.881C818.679 104.255 821.225 103.052 824.195 102.204C827.165 101.355 830.418 100.931 833.883 100.931C838.479 100.931 842.581 101.638 846.258 102.982C849.935 104.325 853.047 106.235 855.663 108.569V105.457C855.663 103.83 856.017 102.699 856.795 101.991C857.573 101.284 858.916 100.931 860.826 100.931C862.735 100.931 864.079 101.284 864.857 101.991C865.634 102.699 865.988 103.83 865.988 105.457V118.682C865.988 120.308 865.634 121.44 864.857 122.147C864.079 122.854 862.735 123.208 860.826 123.208C859.27 123.208 858.209 122.642 857.502 121.369C856.441 119.389 855.168 117.692 853.683 116.348C852.198 115.004 850.501 113.944 848.521 113.166C846.541 112.388 844.42 111.822 842.086 111.468C839.752 111.185 837.207 110.973 834.59 110.973C830.135 110.973 826.67 111.751 824.195 113.307C821.649 114.863 820.447 117.126 820.447 120.096C820.447 121.652 820.942 122.854 821.932 123.774C822.922 124.693 824.266 125.471 826.033 126.037C827.943 126.673 830.206 127.169 832.751 127.451C835.297 127.734 837.984 128.017 840.884 128.371C843.783 128.724 846.612 129.007 849.511 129.502C852.411 129.997 855.098 130.634 857.573 131.553C859.27 132.19 860.826 132.968 862.24 133.887C863.654 134.806 864.857 135.867 865.917 137.14C866.978 138.413 867.756 139.898 868.322 141.596C868.887 143.293 869.17 145.273 869.17 147.466C869.17 150.577 868.604 153.406 867.402 155.952C866.2 158.498 864.503 160.691 862.24 162.529C859.977 164.368 857.149 165.783 853.825 166.773C850.501 167.763 846.683 168.258 842.44 168.258C837.419 168.258 833.034 167.551 829.357 166.136C825.609 164.722 822.356 162.6 819.528 159.771V163.944H819.457Z"></path>
<rect fill="#1C1B1B" height="8" width="43" y="299"></rect>
<path fill="#1C1B1B" d="M1022.34 315.879V287.479H1040V292.999H1028.13V298.839H1037.6V304.359H1028.13V310.359H1040V315.879H1022.34Z"></path>
<path fill="#1C1B1B" d="M979.541 315.879V287.479H985.336V310.359H997.486V315.879H979.541Z"></path>
<path fill="#1C1B1B" d="M940.804 316.36C936.541 316.36 932.997 314.947 930.173 312.12C927.349 309.293 925.937 305.813 925.937 301.68C925.937 297.547 927.349 294.067 930.173 291.24C932.997 288.413 936.541 287 940.804 287C944.028 287 946.918 287.947 949.476 289.84C952.061 291.707 953.752 294.147 954.552 297.16H948.277C947.718 295.773 946.732 294.667 945.32 293.84C943.934 293.013 942.429 292.6 940.804 292.6C938.139 292.6 935.968 293.467 934.289 295.2C932.611 296.933 931.771 299.093 931.771 301.68C931.771 304.267 932.611 306.427 934.289 308.16C935.968 309.893 938.139 310.76 940.804 310.76C942.429 310.76 943.934 310.347 945.32 309.52C946.732 308.693 947.718 307.587 948.277 306.2H954.552C953.752 309.213 952.061 311.667 949.476 313.56C946.918 315.427 944.028 316.36 940.804 316.36Z"></path>
<path fill="#1C1B1B" d="M881.502 315.879V287.479H892.373C894.957 287.479 897.049 288.279 898.648 289.879C900.273 291.479 901.086 293.479 901.086 295.879C901.086 299.613 899.141 302.079 895.251 303.279L905.442 315.879H898.448L888.696 303.919H887.297V315.879H881.502ZM887.297 298.959H891.694C892.813 298.959 893.692 298.693 894.331 298.159C894.997 297.599 895.33 296.839 895.33 295.879C895.33 294.919 894.997 294.173 894.331 293.639C893.692 293.079 892.813 292.799 891.694 292.799H887.297V298.959Z"></path>
<path fill="#1C1B1B" d="M848.622 315.879V287.479H854.417V315.879H848.622Z"></path>
<path fill="#1C1B1B" d="M809.884 316.36C805.621 316.36 802.078 314.947 799.253 312.12C796.429 309.293 795.017 305.813 795.017 301.68C795.017 297.547 796.429 294.067 799.253 291.24C802.078 288.413 805.621 287 809.884 287C813.108 287 815.999 287.947 818.557 289.84C821.141 291.707 822.833 294.147 823.632 297.16H817.358C816.798 295.773 815.812 294.667 814.4 293.84C813.015 293.013 811.509 292.6 809.884 292.6C807.22 292.6 805.048 293.467 803.37 295.2C801.691 296.933 800.852 299.093 800.852 301.68C800.852 304.267 801.691 306.427 803.37 308.16C805.048 309.893 807.22 310.76 809.884 310.76C811.509 310.76 813.015 310.347 814.4 309.52C815.812 308.693 816.798 307.587 817.358 306.2H823.632C822.833 309.213 821.141 311.667 818.557 313.56C815.999 315.427 813.108 316.36 809.884 316.36Z"></path>
<path fill="#1C1B1B" d="M740.102 290.239C741.994 292.053 742.939 294.319 742.939 297.039C742.939 299.759 741.994 302.039 740.102 303.879C738.21 305.693 735.839 306.599 732.988 306.599H729.351V315.879H723.556V287.479H732.988C735.839 287.479 738.21 288.399 740.102 290.239ZM736.105 299.999C736.905 299.226 737.304 298.239 737.304 297.039C737.304 295.839 736.905 294.853 736.105 294.079C735.306 293.306 734.24 292.919 732.908 292.919H729.351V301.159H732.908C734.24 301.159 735.306 300.773 736.105 299.999Z"></path>
<path fill="#1C1B1B" d="M677.212 308.12C678.943 309.88 681.035 310.76 683.486 310.76C685.937 310.76 688.016 309.88 689.721 308.12C691.453 306.333 692.319 304.187 692.319 301.68C692.319 299.173 691.453 297.04 689.721 295.28C688.016 293.493 685.937 292.6 683.486 292.6C681.035 292.6 678.943 293.493 677.212 295.28C675.506 297.04 674.654 299.173 674.654 301.68C674.654 304.187 675.506 306.333 677.212 308.12ZM693.837 312.08C690.986 314.933 687.536 316.36 683.486 316.36C679.436 316.36 675.973 314.933 673.095 312.08C670.244 309.2 668.819 305.733 668.819 301.68C668.819 297.627 670.244 294.173 673.095 291.32C675.973 288.44 679.436 287 683.486 287C687.536 287 690.986 288.44 693.837 291.32C696.715 294.173 698.153 297.627 698.153 301.68C698.153 305.733 696.715 309.2 693.837 312.08Z"></path>
<path fill="#1C1B1B" d="M619.507 315.879V287.479H625.302V298.799H637.612V287.479H643.407V315.879H637.612V304.319H625.302V315.879H619.507Z"></path>
<path fill="#1C1B1B" d="M584.147 316.36C580.924 316.36 578.326 315.44 576.354 313.6C574.383 311.733 573.343 309.56 573.237 307.08H579.032C579.245 308.333 579.818 309.307 580.75 310C581.683 310.667 582.815 311 584.147 311C585.346 311 586.319 310.747 587.065 310.24C587.811 309.707 588.184 309 588.184 308.12C588.184 306.547 586.918 305.4 584.387 304.68L581.39 303.8C579.072 303.133 577.26 302.093 575.954 300.68C574.649 299.267 573.983 297.507 573.956 295.4C573.956 292.813 574.822 290.773 576.554 289.28C578.286 287.76 580.59 287 583.468 287C586.372 287 588.73 287.88 590.542 289.64C592.354 291.373 593.313 293.373 593.419 295.64H587.664C587.371 294.52 586.838 293.693 586.066 293.16C585.293 292.627 584.427 292.36 583.468 292.36C582.402 292.36 581.523 292.6 580.83 293.08C580.164 293.533 579.818 294.173 579.791 295C579.765 295.853 580.044 296.547 580.63 297.08C581.217 297.613 582.122 298.053 583.348 298.4L586.665 299.32C591.568 300.68 594.019 303.547 594.019 307.92C594.019 310.373 593.1 312.4 591.261 314C589.449 315.573 587.078 316.36 584.147 316.36Z"></path>
<path fill="#1C1B1B" d="M505.551 315.879V303.919L495.08 287.479H501.794L508.429 298.239L515.103 287.479H521.857L511.346 303.959V315.879H505.551Z"></path>
<path fill="#1C1B1B" d="M453.795 315.879V287.479H464.186C466.557 287.479 468.555 288.293 470.181 289.919C471.806 291.519 472.619 293.453 472.619 295.719C472.619 297.773 471.873 299.466 470.381 300.799C473.178 302.186 474.577 304.426 474.577 307.519C474.577 309.893 473.738 311.879 472.059 313.479C470.381 315.079 468.289 315.879 465.785 315.879H453.795ZM459.59 310.559H465.385C466.477 310.559 467.343 310.266 467.983 309.679C468.622 309.066 468.942 308.279 468.942 307.319C468.942 306.359 468.622 305.573 467.983 304.959C467.343 304.346 466.477 304.039 465.385 304.039H459.59V310.559ZM459.59 299.119H463.626C464.639 299.119 465.451 298.826 466.064 298.239C466.677 297.626 466.983 296.866 466.983 295.959C466.983 295.079 466.664 294.333 466.024 293.719C465.412 293.079 464.612 292.759 463.626 292.759H459.59V299.119Z"></path>
<path fill="#1C1B1B" d="M374.529 315.879V287.479H383.881C387.957 287.479 391.408 288.853 394.232 291.599C397.056 294.346 398.468 297.706 398.468 301.679C398.468 305.653 397.056 309.013 394.232 311.759C391.408 314.506 387.957 315.879 383.881 315.879H374.529ZM380.324 310.559H383.881C386.465 310.559 388.57 309.706 390.195 307.999C391.82 306.293 392.633 304.186 392.633 301.679C392.633 299.173 391.82 297.066 390.195 295.359C388.57 293.653 386.465 292.799 383.881 292.799H380.324V310.559Z"></path>
<path fill="#1C1B1B" d="M331.032 315.879V287.479H348.697V292.999H336.827V298.839H346.299V304.359H336.827V310.359H348.697V315.879H331.032Z"></path>
<path fill="#1C1B1B" d="M284.023 315.879V287.479H294.894C297.478 287.479 299.569 288.279 301.168 289.879C302.793 291.479 303.606 293.479 303.606 295.879C303.606 299.613 301.661 302.079 297.771 303.279L307.962 315.879H300.968L291.217 303.919H289.818V315.879H284.023ZM289.818 298.959H294.214C295.333 298.959 296.212 298.693 296.852 298.159C297.518 297.599 297.851 296.839 297.851 295.879C297.851 294.919 297.518 294.173 296.852 293.639C296.212 293.079 295.333 292.799 294.214 292.799H289.818V298.959Z"></path>
<path fill="#1C1B1B" d="M240.526 315.879V287.479H258.191V292.999H246.321V298.839H255.793V304.359H246.321V310.359H258.191V315.879H240.526Z"></path>
<path fill="#1C1B1B" d="M203.64 315.88L197.406 300.8L191.171 315.88H185.736L178.902 287.48H185.057L189.373 306.36L197.406 287L205.439 306.36L209.755 287.48H215.91L209.076 315.88H203.64Z"></path>
<path fill="#1C1B1B" d="M135.268 308.12C137 309.88 139.092 310.76 141.543 310.76C143.994 310.76 146.072 309.88 147.777 308.12C149.509 306.333 150.375 304.187 150.375 301.68C150.375 299.173 149.509 297.04 147.777 295.28C146.072 293.493 143.994 292.6 141.543 292.6C139.092 292.6 137 293.493 135.268 295.28C133.563 297.04 132.71 299.173 132.71 301.68C132.71 304.187 133.563 306.333 135.268 308.12ZM151.894 312.08C149.043 314.933 145.593 316.36 141.543 316.36C137.493 316.36 134.029 314.933 131.152 312.08C128.301 309.2 126.875 305.733 126.875 301.68C126.875 297.627 128.301 294.173 131.152 291.32C134.029 288.44 137.493 287 141.543 287C145.593 287 149.043 288.44 151.894 291.32C154.771 294.173 156.21 297.627 156.21 301.68C156.21 305.733 154.771 309.2 151.894 312.08Z"></path>
<path fill="#1C1B1B" d="M100.706 290.239C102.598 292.053 103.543 294.319 103.543 297.039C103.543 299.759 102.598 302.039 100.706 303.879C98.8141 305.693 96.4429 306.599 93.592 306.599H89.9551V315.879H84.1602V287.479H93.592C96.4429 287.479 98.8141 288.399 100.706 290.239ZM96.7093 299.999C97.5086 299.226 97.9083 298.239 97.9083 297.039C97.9083 295.839 97.5086 294.853 96.7093 294.079C95.91 293.306 94.8442 292.919 93.5121 292.919H89.9551V301.159H93.5121C94.8442 301.159 95.91 300.773 96.7093 299.999Z"></path>
</svg>
