<svg xmlns="http://www.w3.org/2000/svg" fill="none" viewBox="0 0 217 24" height="24" width="217">
<path fill="white" d="M190.985 10.7534C190.985 6.77244 193.77 3.77979 197.723 3.77979C201.527 3.77979 204 6.675 204 10.2523C204 10.6698 203.973 11.1013 203.891 11.5328H193.77C193.892 13.5372 195.563 15.1101 197.818 15.1101C199.449 15.1101 200.753 14.4002 201.731 12.8273L203.715 14.3028C202.505 16.5299 200.128 17.6991 197.818 17.6991C193.879 17.6991 190.985 14.7204 190.985 10.7534ZM193.838 9.47279H201.269C201.106 7.59368 199.571 6.27134 197.696 6.27134C195.699 6.27134 194.178 7.59368 193.838 9.47279Z"></path>
<path fill="white" d="M183.914 17.6991C179.96 17.6991 176.999 14.6229 176.999 10.7255C176.999 6.8142 180.083 3.77979 184.022 3.77979C186.59 3.77979 188.737 5.1578 189.959 7.44057L187.881 8.88818C187.066 7.34313 185.598 6.36878 183.968 6.36878C181.455 6.36878 179.716 8.27573 179.716 10.7255C179.716 13.1892 181.496 15.1101 183.914 15.1101C185.612 15.1101 187.025 14.1914 187.921 12.6046L189.946 14.0662C188.75 16.2654 186.549 17.6991 183.914 17.6991Z"></path>
<path fill="white" d="M171.557 17.4207H168.853V4.05817H171.557V5.8816C172.29 4.42007 173.527 3.77979 174.953 3.77979C175.972 3.77979 176.746 4.11385 176.746 4.11385L176.461 6.64716C176.312 6.59149 175.728 6.34094 174.872 6.34094C173.432 6.34094 171.557 7.12042 171.557 10.1409V17.4207Z"></path>
<path fill="white" d="M153.467 10.7534C153.467 6.77244 156.252 3.77979 160.205 3.77979C164.009 3.77979 166.482 6.675 166.482 10.2523C166.482 10.6698 166.454 11.1013 166.373 11.5328H156.252C156.374 13.5372 158.045 15.1101 160.3 15.1101C161.931 15.1101 163.235 14.4002 164.213 12.8273L166.196 14.3028C164.987 16.5299 162.61 17.6991 160.3 17.6991C156.361 17.6991 153.467 14.7204 153.467 10.7534ZM156.32 9.47279H163.751C163.588 7.59368 162.053 6.27134 160.178 6.27134C158.181 6.27134 156.659 7.59368 156.32 9.47279Z"></path>
<path fill="white" d="M129.984 17.4207V4.05817H132.687V5.74241C133.108 5.06036 134.344 3.77979 136.64 3.77979C138.882 3.77979 140.458 4.7263 141.287 6.27134C142.075 4.96293 143.705 3.77979 145.946 3.77979C149.424 3.77979 151.299 6.06255 151.299 9.30575V17.4207H148.596V9.89037C148.596 7.67719 147.441 6.39662 145.525 6.39662C143.623 6.39662 142.061 7.62152 141.993 9.72333V17.4207H139.29V9.89037C139.29 7.67719 138.135 6.39662 136.219 6.39662C134.277 6.39662 132.687 7.67719 132.687 9.89037V17.4207H129.984Z"></path>
<path fill="white" d="M105.55 17.4207V4.05817H108.253V5.74241C108.675 5.06036 109.911 3.77979 112.207 3.77979C114.448 3.77979 116.024 4.7263 116.853 6.27134C117.641 4.96293 119.271 3.77979 121.513 3.77979C124.991 3.77979 126.865 6.06255 126.865 9.30575V17.4207H124.162V9.89037C124.162 7.67719 123.007 6.39662 121.092 6.39662C119.19 6.39662 117.627 7.62152 117.559 9.72333V17.4207H114.856V9.89037C114.856 7.67719 113.701 6.39662 111.786 6.39662C109.843 6.39662 108.253 7.67719 108.253 9.89037V17.4207H105.55Z"></path>
<path fill="white" d="M96.2905 17.6991C92.3236 17.6991 89.362 14.6508 89.362 10.7394C89.362 6.82812 92.3236 3.77979 96.2905 3.77979C100.257 3.77979 103.219 6.82812 103.219 10.7394C103.219 14.6508 100.257 17.6991 96.2905 17.6991ZM92.0519 10.7394C92.0519 13.2032 93.8316 15.1101 96.2905 15.1101C98.7495 15.1101 100.529 13.2032 100.529 10.7394C100.529 8.27573 98.7495 6.36878 96.2905 6.36878C93.8316 6.36878 92.0519 8.27573 92.0519 10.7394Z"></path>
<path fill="white" d="M82.304 17.6991C78.3506 17.6991 75.389 14.6229 75.389 10.7255C75.389 6.8142 78.4729 3.77979 82.4127 3.77979C84.9803 3.77979 87.1268 5.1578 88.3495 7.44057L86.2709 8.88818C85.4558 7.34313 83.9886 6.36878 82.3583 6.36878C79.845 6.36878 78.1061 8.27573 78.1061 10.7255C78.1061 13.1892 79.8858 15.1101 82.304 15.1101C84.0022 15.1101 85.415 14.1914 86.3117 12.6046L88.3359 14.0662C87.1404 16.2654 84.9396 17.6991 82.304 17.6991Z"></path>
<path fill="white" d="M66.1837 17.4207V4.05817H69.5528L69.6208 5.8816C70.2865 4.48967 71.5499 3.77979 73.0171 3.77979C73.7915 3.77979 74.4436 3.98857 74.7153 4.08601L74.4436 7.27353C74.0904 7.14826 73.5198 6.96731 72.8269 6.96731C71.2918 6.96731 69.6751 7.81639 69.6751 10.5724V17.4207H66.1837Z"></path>
<path fill="white" d="M57.8354 17.713C53.6511 17.713 50.9612 14.6229 50.9612 10.7255C50.9748 6.64717 53.8005 3.77979 57.6724 3.77979C61.2589 3.77979 63.9896 6.2435 63.9896 10.294C63.9896 10.7812 63.9488 11.2823 63.8673 11.8112H54.439C54.6972 13.3841 56.2595 14.4837 57.9169 14.4837C59.2075 14.4837 60.3215 13.8713 61.1638 12.6046L63.6363 14.4977C62.4137 16.5856 60.1313 17.713 57.8354 17.713ZM54.4934 9.41711H60.7426C60.566 7.92774 59.3705 6.78636 57.7131 6.78636C55.9878 6.78636 54.6836 7.8999 54.4934 9.41711Z"></path>
<path fill="white" d="M33.2383 17.4208L29.3937 4.05823H32.9938L35.5614 13.7878L38.36 4.26702H41.4575L44.2425 13.7878L46.8237 4.05823H50.4238L46.5792 17.4208H42.2454L39.9088 9.31973L37.5721 17.4208H33.2383Z"></path>
<path fill="white" d="M21.9001 17.6991C17.906 17.6991 14.9308 14.6925 14.9308 10.7394C14.9308 6.80028 17.906 3.77979 21.9001 3.77979C25.9078 3.77979 28.8694 6.80028 28.8694 10.7394C28.8694 14.6925 25.9078 17.6991 21.9001 17.6991ZM18.3951 10.7394C18.3951 12.883 19.8623 14.4698 21.9001 14.4698C23.9515 14.4698 25.4052 12.883 25.4052 10.7394C25.4052 8.60979 23.9515 7.02299 21.9001 7.02299C19.8623 7.02299 18.3951 8.60979 18.3951 10.7394Z"></path>
<path fill="white" d="M3.21044 16.3045C4.3206 17.0374 5.60314 17.4212 6.95594 17.4212C8.81677 17.4212 10.5447 16.6949 11.8739 15.3331C13.203 13.9713 13.9119 12.2008 13.9119 10.2943C13.9119 8.3877 13.203 6.61733 11.8739 5.25549C10.5447 3.89366 8.81677 3.16736 6.95594 3.16736C5.60314 3.16736 4.3206 3.55121 3.21044 4.28405V3.16736H0V23.9999L3.21044 16.5897V16.3045ZM3.21044 11.0046C3.54245 12.8069 5.10991 14.1982 6.95594 14.1982C9.03829 14.1982 10.7662 12.4278 10.7662 10.2943C10.7662 8.16073 9.03829 6.39035 6.95594 6.39035C5.07356 6.39035 3.5383 7.77737 3.21044 9.57556V11.0046Z" clip-rule="evenodd" fill-rule="evenodd"></path>
<path fill="white" d="M212.264 4.47544V0H212.96L214.624 3.40766L216.288 0H216.984V4.47544H216.44V0.879928L214.822 4.14588H214.426L212.808 0.879928V4.47544H212.264Z"></path>
<path fill="white" d="M208 0.507524V0H211.536V0.507524H210.04V4.47544H209.496V0.507524H208Z"></path>
</svg>
