<svg xmlns="http://www.w3.org/2000/svg" fill="none" viewBox="0 0 293 90" height="90" width="293">
<path fill="white" d="M29.679 21.1114C25.0927 21.1114 20.7235 22.8318 16.5713 26.2688C16.4272 23.6466 15.8939 21.9281 14.9714 21.1114L0 23.5596V25.0456C4.18025 24.2875 6.27225 26.4294 6.27225 31.4715V79.2033C6.27225 85.3229 4.25323 88.4252 0.215188 88.5141V90H22.5386V88.5141C18.5585 88.4555 16.5676 85.3531 16.5676 79.2033V62.7255C20.2594 65.5235 24.4715 66.9792 29.2 67.0964C34.6808 67.0661 39.2072 64.8977 42.7849 60.5836C46.4768 56.2127 48.3218 50.5298 48.3218 43.5368C48.3218 36.5437 46.6209 30.9913 43.2172 27.059C39.8434 23.0965 35.3282 21.1152 29.6753 21.1152L29.679 21.1114ZM34.9146 58.6571C32.7815 62.2113 29.8662 63.9903 26.1762 63.9903C24.3293 63.9903 22.4993 63.4666 20.6823 62.4174C18.9234 61.3681 17.5537 60.2187 16.5732 58.9634V35.5342C16.6312 32.2125 17.5967 29.5015 19.4717 27.405C21.4888 25.3934 23.5958 24.3177 25.7888 24.1703C29.2786 23.9964 32.1921 25.8755 34.5273 29.8097C36.8046 33.6569 37.946 38.5666 37.946 44.5406C37.946 50.5147 36.9374 55.1048 34.9184 58.659L34.9146 58.6571Z"></path>
<path fill="white" d="M86.7299 30.6283H86.7692C88.7546 30.6283 90.5696 29.2728 91.0861 27.3955C91.5707 25.6524 90.8241 23.7978 89.1775 22.6787C88.7883 22.4083 88.3654 22.2004 87.9256 22.0491C85.6559 21.274 82.7069 21.5538 80.0311 22.7959C78.7455 23.3914 77.4713 24.2289 76.2475 25.28C75.1398 26.2309 73.9946 27.2707 73.1993 28.5355C72.3423 29.9118 71.5471 31.4185 70.8397 33.0274V27.3615C70.8397 24.1854 70.4505 22.1002 69.6721 21.1114L54.6165 23.5559V25.0456C58.5104 24.4331 60.4583 26.6317 60.4583 31.6454V55.2485C60.4583 61.336 58.5104 64.4724 54.6165 64.6482V66.1322H76.7714V64.6482C72.8213 64.5574 70.8397 61.4267 70.8397 55.2485V37.4909C71.4797 36.1354 72.2806 34.8876 73.2105 33.7703L73.4108 33.517C74.6121 32.0046 75.8583 30.4373 77.5835 29.5545C79.0187 28.8172 80.7271 28.5941 82.2802 28.9363C82.937 29.0818 83.5433 29.4146 84.1271 29.7284C84.9224 30.167 85.7457 30.6169 86.7318 30.6283H86.7299Z"></path>
<path fill="white" d="M181.701 51.5696C180.557 54.2843 179.072 56.5794 177.242 58.4416C174.74 60.9976 171.639 62.3247 167.938 62.4117C163.679 62.527 160.12 60.593 157.263 56.6078C154.405 52.5791 153.161 47.7715 153.533 42.1831H184.816C184.53 35.7138 182.573 30.5319 178.927 26.662C175.355 22.7788 170.41 20.843 164.095 20.843C157.779 20.843 152.562 23.138 148.517 27.715C144.544 32.1615 142.544 37.7215 142.544 44.3629C142.544 51.0043 144.544 56.1295 148.517 60.4474C152.59 64.8221 157.506 67.0019 163.266 67.0019C168.496 67.0019 172.998 65.3552 176.77 62.0638C179.828 59.3925 182.043 55.8988 183.415 51.5677H181.699L181.701 51.5696ZM154.405 34.7931C154.778 32.9593 155.334 31.1406 156.091 29.3352C156.834 27.4579 157.878 25.9285 159.207 24.7431C160.594 23.5162 162.15 22.8658 163.879 22.8091C166.151 22.7221 168.11 23.777 169.725 25.9568C171.368 28.1233 172.44 30.4619 172.97 33.0028C173.54 35.5153 173.699 39.0487 173.699 39.0487L153.664 39.06C153.679 38.8426 154.037 36.5683 154.407 34.7931H154.405Z"></path>
<path fill="white" d="M212.095 64.6463C208.056 64.5593 206.037 61.4551 206.037 55.3355V0L189.339 2.53519V4.1081C193.579 3.32164 195.656 5.44847 195.568 10.4905V55.3374C195.568 61.457 193.491 64.5593 189.339 64.6482V66.1341H212.095V64.6482V64.6463Z"></path>
<path fill="white" d="M241.143 64.6463C237.105 64.5593 235.086 61.4551 235.086 55.3355V0L218.387 2.53519V4.1081C222.627 3.32164 224.705 5.44847 224.617 10.4905V55.3374C224.617 61.457 222.54 64.5593 218.387 64.6482V66.1341H241.143V64.6482V64.6463Z"></path>
<path fill="white" d="M120.26 63.7445C121.194 62.8654 122.017 61.8899 122.711 60.8407C122.711 63.7275 125.073 66.0698 127.984 66.0698H138.469V64.4837C134.678 63.5914 132 60.2338 132 56.3715V36.0616C132 31.392 130.46 27.5921 127.425 24.7639C124.39 21.9413 120.196 20.5102 114.957 20.5102C112.347 20.5102 110.008 20.8411 108.004 21.4914C106 22.1455 104.263 23.0171 102.841 24.0814C101.404 25.1571 100.304 26.3878 99.5701 27.7396C98.962 28.855 98.599 30.0252 98.4905 31.22C98.3932 32.2787 98.3295 33.6361 98.7131 34.7288C99.1772 36.0522 100.5 37.1638 102.085 37.5608C103.661 37.954 105.491 37.5381 106.748 36.4946C107.734 35.6779 108.232 34.5795 108.15 33.4036C108.127 33.0803 108.05 32.7665 107.977 32.4621C107.912 32.1917 107.845 31.9101 107.817 31.6321C107.768 31.1425 107.747 30.615 107.747 29.9685C107.747 27.7641 108.44 25.9776 109.806 24.6599C111.173 23.3403 112.906 22.673 114.959 22.673C117.012 22.673 118.81 23.656 120.354 25.5938C121.918 27.5581 122.711 31.0801 122.711 36.0616V38.525C117.957 38.5458 113.797 39.0108 110.346 39.9051C106.808 40.8238 103.853 42.0508 101.567 43.5538C99.2707 45.0643 97.5324 46.8092 96.3985 48.7376C95.2608 50.6716 94.6844 52.6377 94.6844 54.5812C94.6844 58.5172 96.0448 61.7046 98.7281 64.0564C101.404 66.4026 105.414 67.5936 110.649 67.5936C112.844 67.5936 114.766 67.189 116.357 66.3893C117.923 65.601 119.236 64.7106 120.262 63.7464L120.26 63.7445ZM107.339 62.4911C105.822 60.8671 105.053 58.5493 105.053 55.5964C105.053 52.4468 106.175 49.3236 108.209 46.8697C110.191 44.4782 113.054 42.9998 116.364 42.5934C118.467 42.3363 119.532 42.3306 122.711 42.2606V56.0369C121.937 57.744 121.018 59.2375 119.979 60.4758C119.068 61.5988 117.947 62.6367 116.649 63.563C115.382 64.4648 113.907 64.9223 112.266 64.9223C110.504 64.9223 108.846 64.1037 107.341 62.4911H107.339Z"></path>
<path fill="white" d="M292.614 64.4837C288.823 63.5914 286.145 60.2338 286.145 56.3715V36.0616C286.145 31.392 284.605 27.5921 281.57 24.7639C278.535 21.9413 274.342 20.5102 269.103 20.5102C266.492 20.5102 264.153 20.8411 262.149 21.4914C260.145 22.1455 258.409 23.0171 256.987 24.0814C255.549 25.1571 254.449 26.3878 253.716 27.7396C253.108 28.855 252.745 30.0252 252.636 31.22C252.539 32.2787 252.475 33.6361 252.859 34.7288C253.323 36.0522 254.646 37.1638 256.231 37.5608C257.806 37.954 259.636 37.5381 260.894 36.4946C261.88 35.6779 262.377 34.5795 262.295 33.4036C262.273 33.0803 262.196 32.7665 262.123 32.4621C262.057 32.1917 261.99 31.9101 261.962 31.6321C261.913 31.1425 261.893 30.615 261.893 29.9685C261.893 27.7641 262.585 25.9776 263.951 24.6599C265.319 23.3403 267.052 22.673 269.104 22.673C271.157 22.673 272.955 23.656 274.499 25.5938C276.063 27.5581 276.857 31.0801 276.857 36.0616V38.525C272.102 38.5458 267.942 39.0108 264.492 39.9051C260.953 40.8238 257.999 42.0508 255.712 43.5538C253.416 45.0643 251.678 46.8092 250.544 48.7376C249.406 50.6716 248.83 52.6377 248.83 54.5812C248.83 58.5172 250.19 61.7046 252.874 64.0564C255.549 66.4026 259.559 67.5936 264.795 67.5936C266.99 67.5936 268.912 67.189 270.502 66.3893C272.068 65.601 273.382 64.7106 274.407 63.7464C275.341 62.8673 276.164 61.8918 276.859 60.8425C276.859 63.7294 279.22 66.0717 282.132 66.0717H292.616V64.4856L292.614 64.4837ZM276.855 56.0369C276.08 57.744 275.161 59.2375 274.123 60.4758C273.212 61.5988 272.091 62.6367 270.792 63.563C269.525 64.4648 268.051 64.9223 266.41 64.9223C264.647 64.9223 262.989 64.1037 261.485 62.4911C259.967 60.8671 259.198 58.5493 259.198 55.5964C259.198 52.4468 260.321 49.3236 262.355 46.8697C264.337 44.4782 267.2 42.9998 270.51 42.5934C272.613 42.3363 273.678 42.3306 276.857 42.2606V56.0369H276.855Z"></path>
</svg>
