<?xml version="1.0" encoding="utf-8"?>
<!-- Generator: Adobe Illustrator 28.2.0, SVG Export Plug-In . SVG Version: 6.00 Build 0)  -->
<svg version="1.0" id="katman_1" xmlns="http://www.w3.org/2000/svg" xmlns:xlink="http://www.w3.org/1999/xlink" x="0px" y="0px"
	 viewBox="0 0 1190.6 841.9" style="enable-background:new 0 0 1190.6 841.9;" xml:space="preserve">
<style type="text/css">
	.st0{fill:#E3EEEA;}
	.st1{fill:#366957;}
</style>
<path class="st0" d="M177.1,534.3c62.6,0,113.4-50.8,113.4-113.4s-50.8-113.4-113.4-113.4S63.7,358.2,63.7,420.9
	S114.5,534.3,177.1,534.3z"/>
<path class="st1" d="M153.6,370.6c-9.2,9.2-14.6,21.6-15.2,34.6c-0.6,13,3.8,25.8,12.1,35.8l53.3-53.3l20.2-20.2
	c-10-8.4-22.8-12.7-35.8-12.2C175.1,356,162.8,361.4,153.6,370.6L153.6,370.6z"/>
<path class="st1" d="M150.4,454l-20.2,20.2c10,8.4,22.8,12.7,35.8,12.2c13-0.6,25.4-6,34.6-15.2c9.2-9.2,14.7-21.6,15.2-34.6
	c0.6-13-3.8-25.8-12.2-35.8L150.4,454z"/>
<path d="M347.7,396.8c0-6.2,1.6-11.7,4.8-16.5c3.2-4.8,7.6-8.5,13.3-11.1c5.7-2.7,12.4-4.1,19.8-4.1c7.2,0,13.4,1.3,18.7,3.8
	c5.4,2.5,9.5,6.1,12.4,10.8c3,4.7,4.6,10.2,4.8,16.6h-18.7c-0.2-4.6-1.8-8.1-5-10.7c-3.1-2.6-7.3-3.9-12.5-3.9
	c-5.7,0-10.4,1.3-13.9,3.9c-3.4,2.5-5.1,6-5.1,10.5c0,3.8,1,6.8,3.1,9c2.1,2.1,5.4,3.7,9.9,4.8l16.8,3.8c9.1,1.9,16,5.3,20.4,10.1
	c4.5,4.7,6.7,11,6.7,19c0,6.5-1.6,12.3-4.8,17.2c-3.2,5-7.8,8.8-13.7,11.5c-5.8,2.6-12.7,3.9-20.6,3.9c-7.5,0-14.1-1.3-19.7-3.8
	c-5.6-2.6-10.1-6.3-13.3-10.9c-3.1-4.7-4.8-10.2-5-16.5h18.7c0.1,4.5,1.8,8,5.3,10.7c3.5,2.5,8.2,3.8,14.2,3.8
	c6.2,0,11.1-1.3,14.7-3.8c3.7-2.6,5.5-6.1,5.5-10.4c0-3.7-1-6.6-2.9-8.8c-1.9-2.2-5.1-3.8-9.5-4.7l-16.9-3.8
	c-9-1.9-15.9-5.4-20.6-10.5C350.1,411.8,347.7,405.1,347.7,396.8z M455.4,473.7h-17.8V365.2h17.9V411c2.2-3.5,5.4-6.3,9.3-8.3
	c4.1-2.1,8.8-3.2,14-3.2c8.9,0,15.6,2.7,20.1,8c4.7,5.4,7,12.6,7,21.9v44.4h-17.8v-40.1c0-4.1-0.6-7.4-1.9-10.1
	c-1.3-2.6-3-4.6-5.3-5.8c-2.2-1.4-4.9-2-7.9-2c-3.7,0-6.9,0.8-9.6,2.5c-2.6,1.6-4.7,3.7-6.1,6.6c-1.4,2.8-2,6-2,9.6V473.7z
	 M519.3,437.5c0-7.5,1.7-14.1,5-19.7c3.3-5.7,7.9-10.2,13.7-13.4c5.8-3.2,12.5-4.8,19.8-4.8c7.5,0,14.1,1.6,19.8,4.8
	c5.8,3.2,10.4,7.7,13.7,13.4c3.3,5.6,5,12.2,5,19.7s-1.7,14.1-5,19.8c-3.3,5.6-7.9,10.1-13.7,13.3c-5.7,3.2-12.4,4.8-19.8,4.8
	c-7.4,0-14-1.6-19.8-4.8c-5.8-3.2-10.4-7.6-13.7-13.3C520.9,451.6,519.3,445,519.3,437.5z M537.1,437.5c0,4.4,0.9,8.2,2.6,11.5
	c1.8,3.3,4.3,5.9,7.3,7.7c3.1,1.8,6.7,2.8,10.8,2.8c4.1,0,7.7-0.9,10.8-2.8c3.1-1.8,5.5-4.4,7.3-7.7c1.8-3.3,2.6-7.1,2.6-11.5
	c0-4.5-0.9-8.3-2.6-11.5c-1.8-3.3-4.2-5.9-7.3-7.7c-3.1-1.8-6.7-2.8-10.8-2.8c-4.1,0-7.7,0.9-10.8,2.8c-3,1.8-5.4,4.4-7.3,7.7
	C537.9,429.2,537.1,433.1,537.1,437.5z M610.4,507.1V401.6h16.5l1.2,10.9c2.1-4.2,5.4-7.4,9.9-9.6c4.5-2.3,9.4-3.5,14.7-3.5
	c6.9,0,12.8,1.6,17.8,4.7c5.1,3.1,9,7.4,11.8,13c2.8,5.5,4.2,12.1,4.2,19.7c0,7.5-1.3,14.2-3.9,20c-2.6,5.8-6.5,10.5-11.5,13.9
	c-5,3.3-11,5-18.2,5c-5.4,0-10.3-1-14.7-3.1c-4.4-2-7.7-4.9-9.9-8.5v43H610.4z M628.4,437.7c0,4.3,0.8,8.1,2.5,11.4
	c1.7,3.3,4,5.9,7,7.9c3.1,1.8,6.7,2.8,10.8,2.8c4.2,0,7.8-0.9,10.8-2.8c3-1.9,5.3-4.6,6.9-7.9c1.6-3.3,2.3-7.1,2.3-11.4
	c0-4.3-0.8-8.1-2.3-11.4c-1.6-3.3-3.8-5.9-6.9-7.7c-3-1.9-6.6-2.9-10.8-2.9c-4.1,0-7.7,0.9-10.8,2.8c-3,1.8-5.4,4.4-7,7.7
	C629.2,429.5,628.4,433.3,628.4,437.7z M787.8,475.5c-10.4,0-19.5-2.2-27.1-6.7c-7.6-4.6-13.5-10.9-17.8-19.1
	c-4.2-8.3-6.3-18-6.3-29.2c0-11.1,2.1-20.8,6.4-29c4.4-8.3,10.5-14.7,18.4-19.3c7.9-4.6,17-6.9,27.3-6.9c8.5,0,16.1,1.6,22.8,4.7
	c6.7,3.1,12.3,7.5,16.6,13.1c4.4,5.5,7.1,12.2,8.3,19.8h-19.7c-1.9-6.2-5.3-11-10.4-14.4c-5-3.5-11-5.3-18.2-5.3
	c-6.4,0-12.1,1.5-16.9,4.5c-4.8,3-8.5,7.3-11.1,12.8s-3.9,12.2-3.9,19.8c0,7.4,1.3,13.9,3.9,19.6c2.6,5.5,6.3,9.9,11.1,13
	c4.9,3,10.5,4.5,16.9,4.5c7.3,0,13.5-1.8,18.7-5.3c5.3-3.5,8.8-8.2,10.5-14.2h19.4c-1.4,7.4-4.3,13.9-8.9,19.6
	c-4.5,5.6-10.2,10-17.1,13.1C803.9,473.9,796.3,475.5,787.8,475.5z M850.8,473.7v-72.1h17.8v72.1H850.8z M859.6,387.2
	c-3,0-5.6-1-7.7-3.1c-2-2.1-3.1-4.7-3.1-7.7c0-3,1-5.5,3.1-7.6c2.1-2,4.7-3.1,7.7-3.1c3,0,5.5,1,7.6,3.1c2.1,2,3.2,4.6,3.2,7.6
	c0,3-1.1,5.6-3.2,7.7C865.1,386.2,862.6,387.2,859.6,387.2z M932.2,401.3v16.5h-6.6c-6.5,0-11.6,1.8-15.3,5.3
	c-3.7,3.4-5.5,8.6-5.5,15.6v35H887v-71.9h16.8l1.5,14.9h-1.7c1-4.8,3.3-8.7,6.9-11.7c3.6-3,8.3-4.5,14-4.5c1.3,0,2.5,0,3.8,0.1
	C929.4,400.7,930.8,401,932.2,401.3z M937.6,437.5c0-7.4,1.5-14,4.5-19.7c3.1-5.7,7.3-10.2,12.7-13.4c5.4-3.3,11.7-5,18.8-5
	c9.8,0,17.9,2.6,24.1,7.7c6.3,5.1,10,11.9,10.9,20.6h-17.8c-1.1-4.1-3.1-7.2-6-9.2c-2.8-2.1-6.4-3.2-10.7-3.2c-3.7,0-7,0.9-9.9,2.8
	c-2.8,1.8-5,4.3-6.6,7.6c-1.6,3.3-2.3,7.2-2.3,11.8c0,4.6,0.7,8.5,2.2,11.8c1.5,3.3,3.6,5.9,6.3,7.7c2.8,1.8,6.1,2.6,9.9,2.6
	c4.5,0,8.2-1.1,11.1-3.2c3-2.1,5-5.2,6-9.2h17.9c-0.8,5.6-2.8,10.6-6,14.9c-3.1,4.2-7.2,7.5-12.1,9.9c-5,2.3-10.6,3.5-16.9,3.5
	c-7.3,0-13.7-1.6-19.1-4.7c-5.4-3.2-9.7-7.6-12.7-13.3C939.1,451.9,937.6,445.2,937.6,437.5z M1040,473.7h-17.7V365.2h17.7V473.7z
	 M1091,475.6c-7.1,0-13.4-1.6-19-4.8c-5.4-3.3-9.7-7.8-12.8-13.4c-3.1-5.7-4.7-12.3-4.7-19.7c0-7.5,1.5-14.1,4.5-19.8
	c3-5.7,7.2-10.2,12.7-13.4c5.4-3.3,11.7-5,18.7-5c7.3,0,13.6,1.6,18.8,4.7c5.3,3,9.3,7.2,12.1,12.7c2.9,5.4,4.4,12,4.4,19.6v5.4
	l-61.9,0.1l0.3-11.4h43.9c0-5-1.6-8.9-4.8-12c-3.1-3-7.3-4.5-12.7-4.5c-4.2,0-7.7,0.9-10.7,2.6c-2.8,1.8-5,4.4-6.4,7.9
	c-1.5,3.5-2.2,7.8-2.2,12.8c0,7.8,1.7,13.7,5,17.7c3.4,4,8.4,6,15,6c4.9,0,8.9-0.9,12-2.8c3.2-1.8,5.3-4.5,6.3-7.9h16.5
	c-1.6,7.9-5.4,14.1-11.7,18.5C1108.2,473.4,1100.4,475.6,1091,475.6z"/>
</svg>
